<?xml version="1.0" encoding="utf-8"?>
<!-- Generator: Adobe Illustrator 22.0.1, SVG Export Plug-In . SVG Version: 6.00 Build 0)  -->
<svg version="1.1" id="Layer_1" xmlns="http://www.w3.org/2000/svg" xmlns:xlink="http://www.w3.org/1999/xlink" x="0px" y="0px"
	 viewBox="0 0 85 32" style="enable-background:new 0 0 85 32;" xml:space="preserve">
<style type="text/css">
	.st0{fill:#FFFFFF;}
	.st1{fill:none;}
	.st2{enable-background:new    ;}
	.st3{fill:#E81E8A;}
</style>
<g>
	<g>
		<path class="st0" d="M10.2,16.7c-0.5,0.5-1.1,0.9-1.8,1.1S6.9,18.2,6,18.2c-1.8,0-3.3-0.5-4.3-1.5s-1.5-2.4-1.5-4.3
			c0-1.8,0.5-3.3,1.5-4.3S4.1,6.6,6,6.6c1.5,0,2.8,0.4,3.8,1.1l-1,1.2C8.1,8.4,7.2,8.1,6,8.1c-1.4,0-2.5,0.4-3.2,1.1
			C2,9.9,1.6,11,1.6,12.4s0.4,2.5,1.1,3.2s1.8,1.1,3.2,1.1s2.4-0.4,3.2-1.1L10.2,16.7z"/>
		<path class="st0" d="M17.4,6.6c1.8,0,3.3,0.5,4.3,1.5c1,1,1.5,2.5,1.5,4.3l0,0c0,0.2-0.1,0.4-0.2,0.5s-0.3,0.2-0.5,0.2h-9.4
			c0.1,1.2,0.6,2,1.3,2.7c0.7,0.6,1.7,0.9,3,0.9c1.4,0,2.4-0.4,3.2-1.1l1,1.1c-1,1-2.4,1.5-4.2,1.5s-3.2-0.5-4.3-1.5
			c-1-1-1.5-2.4-1.5-4.3l0,0c0-1.8,0.5-3.3,1.5-4.3S15.6,6.6,17.4,6.6z M21.7,11.7c-0.1-1.2-0.6-2.1-1.3-2.7c-0.7-0.6-1.7-0.9-3-0.9
			s-2.3,0.3-3,0.9c-0.7,0.6-1.2,1.5-1.3,2.7H21.7z"/>
		<path class="st0" d="M25.9,18.1V1.6h1.5v16.5H25.9z"/>
		<path class="st0" d="M31.2,18.1V1.6h1.5v16.5H31.2z"/>
		<path class="st0" d="M41.1,6.6c1.8,0,3.3,0.5,4.3,1.5s1.5,2.5,1.5,4.3l0,0c0,0.2-0.1,0.4-0.2,0.5c-0.1,0.1-0.3,0.2-0.5,0.2h-9.4
			c0.1,1.2,0.6,2,1.3,2.7c0.7,0.6,1.7,0.9,3,0.9c1.4,0,2.4-0.4,3.2-1.1l1,1.1c-1,1-2.4,1.5-4.2,1.5s-3.2-0.5-4.3-1.5
			c-1-1-1.5-2.4-1.5-4.3l0,0c0-1.8,0.5-3.3,1.5-4.3C37.8,7.1,39.2,6.6,41.1,6.6z M45.4,11.7c-0.1-1.2-0.6-2.1-1.3-2.7
			s-1.7-0.9-3-0.9s-2.3,0.3-3,0.9c-0.7,0.6-1.2,1.5-1.3,2.7H45.4z"/>
		<path class="st0" d="M59.4,18.1H58v-5.7c0-1.4-0.4-2.4-1-3.2c-0.6-0.7-1.5-1.1-2.7-1.1s-2.1,0.4-2.7,1.1c-0.6,0.8-1,1.8-1,3.2v5.7
			h-1.5v-5.7c0-1.8,0.4-3.3,1.3-4.3c0.9-1,2.2-1.5,3.8-1.5s2.9,0.5,3.8,1.5c0.9,1,1.4,2.5,1.4,4.3C59.4,12.4,59.4,18.1,59.4,18.1z"
			/>
		<path class="st0" d="M70,18.1h-6.5c-0.3,0-0.5-0.1-0.6-0.4c-0.2-0.3-0.2-0.5,0-0.7L68,8.3h-5.3V6.8h6.5c0.3,0,0.5,0.1,0.7,0.4
			C70,7.5,70,7.7,69.9,8l-5.1,8.7H70V18.1z"/>
		<path class="st0" d="M77.9,6.6c1.8,0,3.3,0.5,4.3,1.5s1.5,2.5,1.5,4.3V15c0,0.2-0.1,0.5-0.2,0.9s-0.4,0.7-0.8,1.1
			c-0.4,0.3-1,0.6-1.8,0.9c-0.8,0.2-1.8,0.4-3.1,0.4s-2.4-0.1-3.1-0.4c-0.8-0.2-1.3-0.5-1.8-0.9c-0.4-0.3-0.7-0.7-0.8-1.1
			c-0.1-0.4-0.2-0.7-0.2-0.9c0-0.9,0.1-1.5,0.4-2s0.6-0.9,1.1-1.1c0.5-0.2,1-0.4,1.6-0.5s1.3-0.1,2-0.1h5c-0.2-1-0.7-1.8-1.4-2.3
			c-0.7-0.5-1.7-0.8-2.9-0.8c-1.2,0-2.2,0.3-3,0.9l-0.9-1.2C75.1,7,76.4,6.6,77.9,6.6z M82.3,12.7H78c-0.9,0-1.7,0-2.3,0.1
			c-0.6,0-1,0.2-1.3,0.3c-0.3,0.2-0.5,0.4-0.6,0.7s-0.1,0.7-0.1,1.2c0,0.3,0.1,0.6,0.4,0.8s0.6,0.4,1,0.6c0.4,0.1,0.9,0.2,1.4,0.3
			c0.5,0.1,1,0.1,1.6,0.1c0.5,0,1,0,1.6-0.1c0.5-0.1,1-0.2,1.4-0.3c0.4-0.1,0.7-0.3,1-0.6c0.3-0.2,0.4-0.5,0.4-0.8v-2.3H82.3z"/>
	</g>
</g>
<polyline class="st1" points="108.2,49.6 -15.6,49.6 -15.6,-15.3 108.2,-15.3 "/>
<rect x="59.6" y="20.4" class="st1" width="24.9" height="12.4"/>
<g class="st2">
	<path class="st3" d="M66.3,24.4c0.4,0.2,0.7,0.5,0.9,0.9c0.2,0.4,0.4,0.8,0.4,1.3c0,0.3-0.1,0.6-0.2,0.9c-0.1,0.3-0.3,0.6-0.5,0.8
		c-0.2,0.2-0.5,0.4-0.8,0.5c-0.3,0.1-0.6,0.2-0.9,0.2h-3.5c-0.1,0-0.2,0-0.3-0.1s-0.1-0.2-0.1-0.3v-7.5c0-0.1,0-0.2,0.1-0.3
		s0.2-0.1,0.3-0.1H65c0.3,0,0.6,0.1,0.8,0.2c0.2,0.1,0.5,0.3,0.6,0.4s0.3,0.4,0.4,0.7s0.2,0.5,0.2,0.8c0,0.3-0.1,0.6-0.2,0.9
		C66.8,24,66.6,24.2,66.3,24.4z M62.1,24.1h3c0.2,0,0.3,0,0.5-0.1c0.2-0.1,0.3-0.2,0.4-0.3c0.1-0.1,0.2-0.3,0.3-0.4
		c0.1-0.2,0.1-0.3,0.1-0.5c0-0.2,0-0.3-0.1-0.5c-0.1-0.2-0.2-0.3-0.3-0.4c-0.1-0.1-0.2-0.2-0.4-0.3c-0.2-0.1-0.3-0.1-0.5-0.1h-3
		V24.1z M65.2,28.2c0.2,0,0.4,0,0.6-0.1c0.2-0.1,0.4-0.2,0.5-0.4s0.3-0.3,0.4-0.5c0.1-0.2,0.1-0.4,0.1-0.7c0-0.2,0-0.4-0.1-0.7
		c-0.1-0.2-0.2-0.4-0.4-0.5c-0.2-0.2-0.3-0.3-0.5-0.4c-0.2-0.1-0.4-0.1-0.6-0.1h-3.1v3.4H65.2z"/>
	<path class="st3" d="M69,29v-8.6h0.8V29H69z"/>
	<path class="st3" d="M74.1,29.1c-1,0-1.7-0.3-2.2-0.8c-0.5-0.5-0.8-1.3-0.8-2.2c0-0.9,0.3-1.7,0.8-2.2c0.5-0.5,1.3-0.8,2.2-0.8
		s1.7,0.3,2.2,0.8c0.5,0.5,0.8,1.3,0.8,2.2c0,1-0.3,1.7-0.8,2.2C75.8,28.8,75,29.1,74.1,29.1z M74.1,23.8c-0.7,0-1.3,0.2-1.7,0.6
		s-0.6,0.9-0.6,1.7s0.2,1.3,0.6,1.7s0.9,0.6,1.7,0.6s1.3-0.2,1.7-0.6s0.6-0.9,0.6-1.7s-0.2-1.3-0.6-1.7S74.8,23.8,74.1,23.8z"/>
	<path class="st3" d="M80.8,23c1,0,1.7,0.3,2.2,0.8c0.5,0.5,0.8,1.3,0.8,2.2v2.4c0,0.9-0.3,1.7-0.8,2.2c-0.5,0.5-1.3,0.8-2.2,0.8
		v-0.8c0.7,0,1.3-0.2,1.7-0.6s0.6-0.9,0.6-1.7v-0.2c-0.5,0.5-1.3,0.8-2.2,0.8c-1,0-1.7-0.3-2.2-0.8c-0.5-0.5-0.8-1.3-0.8-2.2
		c0-0.9,0.3-1.7,0.8-2.2C79.1,23.3,79.9,23,80.8,23z M83.1,26c0-0.7-0.2-1.3-0.6-1.7s-0.9-0.6-1.7-0.6s-1.3,0.2-1.7,0.6
		s-0.6,0.9-0.6,1.7s0.2,1.3,0.6,1.7s0.9,0.6,1.7,0.6c0.7,0,1.2-0.2,1.6-0.5c0.4-0.3,0.6-0.8,0.6-1.5L83.1,26z"/>
</g>
</svg>
